# Blender 3.6.4
# www.blender.org
mtllib Lentes1.mtl
o Untitled.001
v -0.800000 -0.430001 0.080000
v -0.800000 -0.430001 -0.120000
v -0.800000 0.269999 0.080000
v -0.800000 0.269999 -0.120000
v -0.700000 -0.530001 0.080000
v -0.700000 -0.530001 -0.120000
v -0.700000 -0.430001 0.080000
v -0.700000 -0.430001 -0.120000
v -0.700000 0.269999 0.080000
v -0.700000 0.269999 -0.020000
v -0.700000 0.369999 0.080000
v -0.700000 0.369999 -0.020000
v -0.600000 0.269999 -0.020000
v -0.600000 0.269999 -0.120000
v -0.600000 0.369999 -0.020000
v -0.600000 0.369999 -0.120000
v 0.200000 -0.430001 0.080000
v 0.200000 -0.430001 -0.120000
v 0.200000 0.269999 0.080000
v 0.200000 0.269999 -0.120000
v 0.300000 -0.530001 0.080000
v 0.300000 -0.530001 -0.120000
v 0.300000 -0.430001 0.080000
v 0.300000 -0.430001 -0.120000
v 0.300000 0.269999 0.080000
v 0.300000 0.269999 -0.020000
v 0.300000 0.369999 0.080000
v 0.300000 0.369999 -0.020000
v 0.400000 0.269999 -0.020000
v 0.400000 0.269999 -0.120000
v 0.400000 0.369999 -0.020000
v 0.400000 0.369999 -0.120000
v -0.400000 0.269999 -0.020000
v -0.400000 0.269999 -0.120000
v -0.400000 0.369999 -0.020000
v -0.400000 0.369999 -0.120000
v -0.300000 -0.530001 0.080000
v -0.300000 -0.530001 -0.120000
v -0.300000 -0.430001 0.080000
v -0.300000 -0.430001 -0.120000
v -0.300000 0.269999 0.080000
v -0.300000 0.269999 -0.020000
v -0.300000 0.369999 0.080000
v -0.300000 0.369999 -0.020000
v -0.200000 -0.430001 0.080000
v -0.200000 -0.430001 -0.120000
v -0.200000 0.269999 0.080000
v -0.200000 0.269999 -0.120000
v 0.600000 0.269999 -0.020000
v 0.600000 0.269999 -0.120000
v 0.600000 0.369999 -0.020000
v 0.600000 0.369999 -0.120000
v 0.700000 -0.530001 0.080000
v 0.700000 -0.530001 -0.120000
v 0.700000 -0.430001 0.080000
v 0.700000 -0.430001 -0.120000
v 0.700000 0.269999 0.080000
v 0.700000 0.269999 -0.020000
v 0.700000 0.369999 0.080000
v 0.700000 0.369999 -0.020000
v 0.800000 -0.430001 0.080000
v 0.800000 -0.430001 -0.120000
v 0.800000 0.269999 0.080000
v 0.800000 0.269999 -0.120000
v -0.800000 -0.430001 0.080000
v -0.800000 0.269999 0.080000
v -0.700000 -0.530001 0.080000
v -0.700000 -0.430001 0.080000
v -0.700000 -0.330001 0.080000
v -0.700000 -0.030001 0.080000
v -0.700000 0.169999 0.080000
v -0.700000 0.269999 0.080000
v -0.700000 0.369999 0.080000
v -0.600000 -0.430001 0.080000
v -0.600000 -0.330001 0.080000
v -0.600000 -0.130001 0.080000
v -0.600000 -0.030001 0.080000
v -0.600000 0.069999 0.080000
v -0.600000 0.169999 0.080000
v -0.600000 0.269999 0.080000
v -0.500000 -0.230001 0.080000
v -0.500000 -0.130001 0.080000
v -0.500000 -0.030001 0.080000
v -0.500000 0.069999 0.080000
v -0.400000 -0.430001 0.080000
v -0.400000 -0.330001 0.080000
v -0.400000 -0.230001 0.080000
v -0.400000 -0.130001 0.080000
v -0.400000 -0.030001 0.080000
v -0.400000 0.169999 0.080000
v -0.400000 0.269999 0.080000
v -0.300000 -0.530001 0.080000
v -0.300000 -0.430001 0.080000
v -0.300000 -0.330001 0.080000
v -0.300000 -0.130001 0.080000
v -0.300000 0.169999 0.080000
v -0.300000 0.269999 0.080000
v -0.300000 0.369999 0.080000
v -0.200000 -0.430001 0.080000
v -0.200000 0.269999 0.080000
v 0.200000 -0.430001 0.080000
v 0.200000 0.269999 0.080000
v 0.300000 -0.530001 0.080000
v 0.300000 -0.430001 0.080000
v 0.300000 -0.330001 0.080000
v 0.300000 -0.130001 0.080000
v 0.300000 0.169999 0.080000
v 0.300000 0.269999 0.080000
v 0.300000 0.369999 0.080000
v 0.400000 -0.430001 0.080000
v 0.400000 -0.330001 0.080000
v 0.400000 -0.230001 0.080000
v 0.400000 -0.130001 0.080000
v 0.400000 -0.030001 0.080000
v 0.400000 0.169999 0.080000
v 0.400000 0.269999 0.080000
v 0.500000 -0.230001 0.080000
v 0.500000 -0.130001 0.080000
v 0.500000 -0.030001 0.080000
v 0.500000 0.069999 0.080000
v 0.600000 -0.430001 0.080000
v 0.600000 -0.330001 0.080000
v 0.600000 -0.130001 0.080000
v 0.600000 -0.030001 0.080000
v 0.600000 0.069999 0.080000
v 0.600000 0.169999 0.080000
v 0.600000 0.269999 0.080000
v 0.700000 -0.530001 0.080000
v 0.700000 -0.430001 0.080000
v 0.700000 -0.330001 0.080000
v 0.700000 -0.030001 0.080000
v 0.700000 0.169999 0.080000
v 0.700000 0.269999 0.080000
v 0.700000 0.369999 0.080000
v 0.800000 -0.430001 0.080000
v 0.800000 0.269999 0.080000
v -0.700000 0.269999 -0.020000
v -0.700000 0.369999 -0.020000
v -0.600000 0.269999 -0.020000
v -0.600000 0.369999 -0.020000
v -0.400000 0.269999 -0.020000
v -0.400000 0.369999 -0.020000
v -0.300000 0.269999 -0.020000
v -0.300000 0.369999 -0.020000
v 0.300000 0.269999 -0.020000
v 0.300000 0.369999 -0.020000
v 0.400000 0.269999 -0.020000
v 0.400000 0.369999 -0.020000
v 0.600000 0.269999 -0.020000
v 0.600000 0.369999 -0.020000
v 0.700000 0.269999 -0.020000
v 0.700000 0.369999 -0.020000
v -0.800000 -0.430001 -0.120000
v -0.800000 0.269999 -0.120000
v -0.700000 -0.530001 -0.120000
v -0.700000 -0.430001 -0.120000
v -0.600000 0.269999 -0.120000
v -0.600000 0.369999 -0.120000
v -0.400000 0.269999 -0.120000
v -0.400000 0.369999 -0.120000
v -0.300000 -0.530001 -0.120000
v -0.300000 -0.430001 -0.120000
v -0.200000 -0.430001 -0.120000
v -0.200000 0.269999 -0.120000
v 0.200000 -0.430001 -0.120000
v 0.200000 0.269999 -0.120000
v 0.300000 -0.530001 -0.120000
v 0.300000 -0.430001 -0.120000
v 0.400000 0.269999 -0.120000
v 0.400000 0.369999 -0.120000
v 0.600000 0.269999 -0.120000
v 0.600000 0.369999 -0.120000
v 0.700000 -0.530001 -0.120000
v 0.700000 -0.430001 -0.120000
v 0.800000 -0.430001 -0.120000
v 0.800000 0.269999 -0.120000
v -0.700000 -0.530001 0.080000
v -0.300000 -0.530001 0.080000
v 0.300000 -0.530001 0.080000
v 0.700000 -0.530001 0.080000
v -0.700000 -0.530001 -0.120000
v -0.300000 -0.530001 -0.120000
v 0.300000 -0.530001 -0.120000
v 0.700000 -0.530001 -0.120000
v -0.800000 -0.430001 0.080000
v -0.700000 -0.430001 0.080000
v -0.300000 -0.430001 0.080000
v -0.200000 -0.430001 0.080000
v 0.200000 -0.430001 0.080000
v 0.300000 -0.430001 0.080000
v 0.700000 -0.430001 0.080000
v 0.800000 -0.430001 0.080000
v -0.800000 -0.430001 -0.120000
v -0.700000 -0.430001 -0.120000
v -0.300000 -0.430001 -0.120000
v -0.200000 -0.430001 -0.120000
v 0.200000 -0.430001 -0.120000
v 0.300000 -0.430001 -0.120000
v 0.700000 -0.430001 -0.120000
v 0.800000 -0.430001 -0.120000
v -0.800000 0.269999 0.080000
v -0.700000 0.269999 0.080000
v -0.300000 0.269999 0.080000
v -0.200000 0.269999 0.080000
v 0.200000 0.269999 0.080000
v 0.300000 0.269999 0.080000
v 0.700000 0.269999 0.080000
v 0.800000 0.269999 0.080000
v -0.700000 0.269999 -0.020000
v -0.600000 0.269999 -0.020000
v -0.400000 0.269999 -0.020000
v -0.300000 0.269999 -0.020000
v 0.300000 0.269999 -0.020000
v 0.400000 0.269999 -0.020000
v 0.600000 0.269999 -0.020000
v 0.700000 0.269999 -0.020000
v -0.800000 0.269999 -0.120000
v -0.600000 0.269999 -0.120000
v -0.400000 0.269999 -0.120000
v -0.200000 0.269999 -0.120000
v 0.200000 0.269999 -0.120000
v 0.400000 0.269999 -0.120000
v 0.600000 0.269999 -0.120000
v 0.800000 0.269999 -0.120000
v -0.700000 0.369999 0.080000
v -0.300000 0.369999 0.080000
v 0.300000 0.369999 0.080000
v 0.700000 0.369999 0.080000
v -0.700000 0.369999 -0.020000
v -0.600000 0.369999 -0.020000
v -0.400000 0.369999 -0.020000
v -0.300000 0.369999 -0.020000
v 0.300000 0.369999 -0.020000
v 0.400000 0.369999 -0.020000
v 0.600000 0.369999 -0.020000
v 0.700000 0.369999 -0.020000
v -0.600000 0.369999 -0.120000
v -0.400000 0.369999 -0.120000
v 0.400000 0.369999 -0.120000
v 0.600000 0.369999 -0.120000
vn -1.0000 -0.0000 -0.0000
vn 1.0000 -0.0000 -0.0000
vn -0.0000 -0.0000 1.0000
vn -0.0000 -0.0000 -1.0000
vn -0.0000 -1.0000 -0.0000
vn -0.0000 1.0000 -0.0000
vt 0.943359 0.500000
vt 0.751953 0.500000
vt 0.689453 0.500000
s 0
usemtl palette
f 3/1/1 2/1/1 1/1/1
f 4/1/1 2/1/1 3/1/1
f 7/1/1 6/1/1 5/1/1
f 8/1/1 6/1/1 7/1/1
f 11/1/1 10/1/1 9/1/1
f 12/1/1 10/1/1 11/1/1
f 15/1/1 14/1/1 13/1/1
f 16/1/1 14/1/1 15/1/1
f 19/1/1 18/1/1 17/1/1
f 20/1/1 18/1/1 19/1/1
f 23/1/1 22/1/1 21/1/1
f 24/1/1 22/1/1 23/1/1
f 27/1/1 26/1/1 25/1/1
f 28/1/1 26/1/1 27/1/1
f 31/1/1 30/1/1 29/1/1
f 32/1/1 30/1/1 31/1/1
f 33/1/2 34/1/2 35/1/2
f 35/1/2 34/1/2 36/1/2
f 37/1/2 38/1/2 39/1/2
f 39/1/2 38/1/2 40/1/2
f 41/1/2 42/1/2 43/1/2
f 43/1/2 42/1/2 44/1/2
f 45/1/2 46/1/2 47/1/2
f 47/1/2 46/1/2 48/1/2
f 49/1/2 50/1/2 51/1/2
f 51/1/2 50/1/2 52/1/2
f 53/1/2 54/1/2 55/1/2
f 55/1/2 54/1/2 56/1/2
f 57/1/2 58/1/2 59/1/2
f 59/1/2 58/1/2 60/1/2
f 61/1/2 62/1/2 63/1/2
f 63/1/2 62/1/2 64/1/2
f 68/1/3 66/1/3 65/1/3
f 69/1/3 66/1/3 68/1/3
f 70/1/3 66/1/3 69/1/3
f 71/1/3 66/1/3 70/1/3
f 72/1/3 66/1/3 71/1/3
f 74/1/3 68/1/3 67/1/3
f 74/1/3 69/1/3 68/1/3
f 75/2/3 70/2/3 69/2/3
f 75/1/3 69/1/3 74/1/3
f 76/2/3 70/2/3 75/2/3
f 77/3/3 71/3/3 70/3/3
f 77/2/3 70/2/3 76/2/3
f 78/3/3 71/3/3 77/3/3
f 79/1/3 73/1/3 72/1/3
f 79/3/3 71/3/3 78/3/3
f 79/1/3 72/1/3 71/1/3
f 80/1/3 73/1/3 79/1/3
f 81/2/3 76/2/3 75/2/3
f 81/2/3 75/2/3 74/2/3
f 82/3/3 78/3/3 77/3/3
f 82/2/3 76/2/3 81/2/3
f 82/3/3 77/3/3 76/3/3
f 83/3/3 78/3/3 82/3/3
f 84/2/3 79/2/3 78/2/3
f 84/3/3 78/3/3 83/3/3
f 84/2/3 80/2/3 79/2/3
f 85/2/3 81/2/3 74/2/3
f 85/1/3 74/1/3 67/1/3
f 86/2/3 81/2/3 85/2/3
f 87/3/3 83/3/3 82/3/3
f 87/2/3 81/2/3 86/2/3
f 87/3/3 82/3/3 81/3/3
f 88/3/3 83/3/3 87/3/3
f 89/2/3 84/2/3 83/2/3
f 89/3/3 83/3/3 88/3/3
f 90/2/3 80/2/3 84/2/3
f 90/2/3 84/2/3 89/2/3
f 91/1/3 73/1/3 80/1/3
f 91/2/3 80/2/3 90/2/3
f 92/1/3 86/1/3 85/1/3
f 92/1/3 85/1/3 67/1/3
f 93/1/3 86/1/3 92/1/3
f 94/3/3 88/3/3 87/3/3
f 94/1/3 86/1/3 93/1/3
f 94/3/3 87/3/3 86/3/3
f 95/2/3 89/2/3 88/2/3
f 95/3/3 88/3/3 94/3/3
f 95/2/3 90/2/3 89/2/3
f 96/1/3 91/1/3 90/1/3
f 96/2/3 90/2/3 95/2/3
f 97/1/3 73/1/3 91/1/3
f 97/1/3 91/1/3 96/1/3
f 98/1/3 73/1/3 97/1/3
f 99/1/3 94/1/3 93/1/3
f 99/1/3 96/1/3 95/1/3
f 99/1/3 97/1/3 96/1/3
f 99/1/3 95/1/3 94/1/3
f 100/1/3 97/1/3 99/1/3
f 104/1/3 102/1/3 101/1/3
f 105/1/3 102/1/3 104/1/3
f 106/1/3 102/1/3 105/1/3
f 107/1/3 102/1/3 106/1/3
f 108/1/3 102/1/3 107/1/3
f 110/1/3 104/1/3 103/1/3
f 110/1/3 105/1/3 104/1/3
f 111/3/3 106/3/3 105/3/3
f 111/1/3 105/1/3 110/1/3
f 112/3/3 106/3/3 111/3/3
f 113/2/3 107/2/3 106/2/3
f 113/3/3 106/3/3 112/3/3
f 114/2/3 107/2/3 113/2/3
f 115/1/3 108/1/3 107/1/3
f 115/2/3 107/2/3 114/2/3
f 115/1/3 109/1/3 108/1/3
f 116/1/3 109/1/3 115/1/3
f 117/3/3 114/3/3 113/3/3
f 117/3/3 113/3/3 112/3/3
f 117/2/3 112/2/3 111/2/3
f 117/2/3 111/2/3 110/2/3
f 118/3/3 114/3/3 117/3/3
f 119/2/3 116/2/3 115/2/3
f 119/3/3 114/3/3 118/3/3
f 119/2/3 115/2/3 114/2/3
f 120/2/3 116/2/3 119/2/3
f 121/2/3 118/2/3 117/2/3
f 121/2/3 117/2/3 110/2/3
f 121/1/3 110/1/3 103/1/3
f 122/2/3 118/2/3 121/2/3
f 123/3/3 120/3/3 119/3/3
f 123/2/3 118/2/3 122/2/3
f 123/3/3 119/3/3 118/3/3
f 124/3/3 120/3/3 123/3/3
f 125/2/3 116/2/3 120/2/3
f 125/3/3 120/3/3 124/3/3
f 126/2/3 116/2/3 125/2/3
f 127/1/3 109/1/3 116/1/3
f 127/2/3 116/2/3 126/2/3
f 128/1/3 122/1/3 121/1/3
f 128/1/3 121/1/3 103/1/3
f 129/1/3 122/1/3 128/1/3
f 130/2/3 124/2/3 123/2/3
f 130/1/3 122/1/3 129/1/3
f 130/2/3 123/2/3 122/2/3
f 131/3/3 126/3/3 125/3/3
f 131/2/3 124/2/3 130/2/3
f 131/3/3 125/3/3 124/3/3
f 132/1/3 127/1/3 126/1/3
f 132/3/3 126/3/3 131/3/3
f 133/1/3 109/1/3 127/1/3
f 133/1/3 127/1/3 132/1/3
f 134/1/3 109/1/3 133/1/3
f 135/1/3 130/1/3 129/1/3
f 135/1/3 133/1/3 132/1/3
f 135/1/3 132/1/3 131/1/3
f 135/1/3 131/1/3 130/1/3
f 136/1/3 133/1/3 135/1/3
f 137/1/4 138/1/4 139/1/4
f 139/1/4 138/1/4 140/1/4
f 141/1/4 142/1/4 143/1/4
f 143/1/4 142/1/4 144/1/4
f 145/1/4 146/1/4 147/1/4
f 147/1/4 146/1/4 148/1/4
f 149/1/4 150/1/4 151/1/4
f 151/1/4 150/1/4 152/1/4
f 153/1/4 154/1/4 156/1/4
f 156/1/4 154/1/4 157/1/4
f 155/1/4 156/1/4 157/1/4
f 155/1/4 157/1/4 159/1/4
f 157/1/4 158/1/4 159/1/4
f 159/1/4 158/1/4 160/1/4
f 155/1/4 159/1/4 161/1/4
f 161/1/4 159/1/4 162/1/4
f 162/1/4 159/1/4 163/1/4
f 163/1/4 159/1/4 164/1/4
f 165/1/4 166/1/4 168/1/4
f 168/1/4 166/1/4 169/1/4
f 167/1/4 168/1/4 169/1/4
f 167/1/4 169/1/4 171/1/4
f 169/1/4 170/1/4 171/1/4
f 171/1/4 170/1/4 172/1/4
f 167/1/4 171/1/4 173/1/4
f 173/1/4 171/1/4 174/1/4
f 174/1/4 171/1/4 175/1/4
f 175/1/4 171/1/4 176/1/4
f 181/1/5 178/1/5 177/1/5
f 182/1/5 178/1/5 181/1/5
f 183/1/5 180/1/5 179/1/5
f 184/1/5 180/1/5 183/1/5
f 193/1/5 186/1/5 185/1/5
f 194/1/5 186/1/5 193/1/5
f 195/1/5 188/1/5 187/1/5
f 196/1/5 188/1/5 195/1/5
f 197/1/5 190/1/5 189/1/5
f 198/1/5 190/1/5 197/1/5
f 199/1/5 192/1/5 191/1/5
f 200/1/5 192/1/5 199/1/5
f 201/1/6 202/1/6 209/1/6
f 203/1/6 204/1/6 212/1/6
f 205/1/6 206/1/6 213/1/6
f 207/1/6 208/1/6 216/1/6
f 209/1/6 210/1/6 217/1/6
f 201/1/6 209/1/6 217/1/6
f 217/1/6 210/1/6 218/1/6
f 211/1/6 212/1/6 219/1/6
f 212/1/6 204/1/6 220/1/6
f 219/1/6 212/1/6 220/1/6
f 213/1/6 214/1/6 221/1/6
f 205/1/6 213/1/6 221/1/6
f 221/1/6 214/1/6 222/1/6
f 215/1/6 216/1/6 223/1/6
f 216/1/6 208/1/6 224/1/6
f 223/1/6 216/1/6 224/1/6
f 225/1/6 226/1/6 229/1/6
f 229/1/6 226/1/6 230/1/6
f 230/1/6 226/1/6 231/1/6
f 231/1/6 226/1/6 232/1/6
f 227/1/6 228/1/6 233/1/6
f 233/1/6 228/1/6 234/1/6
f 234/1/6 228/1/6 235/1/6
f 235/1/6 228/1/6 236/1/6
f 230/1/6 231/1/6 237/1/6
f 237/1/6 231/1/6 238/1/6
f 234/1/6 235/1/6 239/1/6
f 239/1/6 235/1/6 240/1/6
