# MagicaVoxel @ Ephtracy

# group
o 

# material
mtllib Tile_s.mtl
usemtl palette

# normals
vn -1 0 0
vn 1 0 0
vn 0 0 1
vn 0 0 -1
vn 0 -1 0
vn 0 1 0

# texcoords
vt 0.232422 0.5
vt 0.236328 0.5
vt 0.244141 0.5

# verts
v -1.5 0 1.5
v -1.5 0 -1.5
v -1.5 0.3 1.5
v -1.5 0.3 -1.5
v 1.5 0 1.5
v 1.5 0 -1.5
v 1.5 0.3 1.5
v 1.5 0.3 -1.5
v -1.5 0 1.5
v -1.5 0.3 1.5
v -1.4 0 1.5
v -1.4 0.3 1.5
v -1.2 0.2 1.5
v -1.2 0.3 1.5
v -1.1 0.2 1.5
v -1.1 0.3 1.5
v -0.9 0.2 1.5
v -0.9 0.3 1.5
v -0.8 0.2 1.5
v -0.8 0.3 1.5
v -0.6 0.2 1.5
v -0.6 0.3 1.5
v -0.5 0.2 1.5
v -0.5 0.3 1.5
v 0.3 0.2 1.5
v 0.3 0.3 1.5
v 0.4 0.2 1.5
v 0.4 0.3 1.5
v 0.5 0.2 1.5
v 0.5 0.3 1.5
v 0.6 0.2 1.5
v 0.6 0.3 1.5
v 1.4 0 1.5
v 1.4 0.3 1.5
v 1.5 0 1.5
v 1.5 0.3 1.5
v -1.5 0 -1.5
v -1.5 0.3 -1.5
v -1.4 0 -1.5
v -1.4 0.3 -1.5
v -1.2 0.2 -1.5
v -1.2 0.3 -1.5
v -1.1 0.2 -1.5
v -1.1 0.3 -1.5
v -0.9 0.2 -1.5
v -0.9 0.3 -1.5
v -0.8 0.2 -1.5
v -0.8 0.3 -1.5
v -0.6 0 -1.5
v -0.6 0.3 -1.5
v -0.5 0 -1.5
v -0.5 0.3 -1.5
v -0.1 0.1 -1.5
v -0.1 0.3 -1.5
v 0 0.1 -1.5
v 0 0.3 -1.5
v 0.3 0.2 -1.5
v 0.3 0.3 -1.5
v 0.4 0.2 -1.5
v 0.4 0.3 -1.5
v 0.5 0 -1.5
v 0.5 0.3 -1.5
v 0.6 0 -1.5
v 0.6 0.3 -1.5
v 1.4 0 -1.5
v 1.4 0.3 -1.5
v 1.5 0 -1.5
v 1.5 0.3 -1.5
v -1.5 0 1.5
v -1.4 0 1.5
v 1.4 0 1.5
v 1.5 0 1.5
v -1 0 -0.3
v -0.9 0 -0.3
v -1 0 -1.1
v -0.9 0 -1.1
v -0.6 0 -1.4
v -0.5 0 -1.4
v 0.5 0 -1.4
v 0.6 0 -1.4
v -1.5 0 -1.5
v -1.4 0 -1.5
v -0.6 0 -1.5
v -0.5 0 -1.5
v 0.5 0 -1.5
v 0.6 0 -1.5
v 1.4 0 -1.5
v 1.5 0 -1.5
v -1.5 0.3 1.5
v -1.4 0.3 1.5
v -1.2 0.3 1.5
v -1.1 0.3 1.5
v -0.9 0.3 1.5
v -0.8 0.3 1.5
v -0.6 0.3 1.5
v -0.5 0.3 1.5
v 0.3 0.3 1.5
v 0.4 0.3 1.5
v 0.5 0.3 1.5
v 0.6 0.3 1.5
v 1.4 0.3 1.5
v 1.5 0.3 1.5
v 0 0.3 1.4
v 0.1 0.3 1.4
v 0.6 0.3 1.4
v 1.4 0.3 1.4
v -1.4 0.3 1.3
v -1.3 0.3 1.3
v -0.9 0.3 1.3
v -0.8 0.3 1.3
v 0.6 0.3 1.3
v 1.4 0.3 1.3
v -1.4 0.3 1.2
v -1.3 0.3 1.2
v -1.2 0.3 1.2
v -1.1 0.3 1.2
v 0.7 0.3 1.2
v 0.8 0.3 1.2
v 1.3 0.3 1.2
v 1.4 0.3 1.2
v -1.4 0.3 1.1
v -0.6 0.3 1.1
v 1 0.3 1.1
v 1.1 0.3 1.1
v 1.2 0.3 1.1
v 1.3 0.3 1.1
v -1.4 0.3 1
v -0.6 0.3 1
v 0.7 0.3 1
v 0.8 0.3 1
v 1.3 0.3 1
v 1.4 0.3 1
v -1.3 0.3 0.9
v -1.2 0.3 0.9
v -0.9 0.3 0.9
v -0.8 0.3 0.9
v -0.3 0.3 0.8
v -0.2 0.3 0.8
v 1 0.3 0.7
v 1.1 0.3 0.7
v -1.3 0.3 0.6
v -1.2 0.3 0.6
v -0.8 0.3 0.6
v -0.7 0.3 0.6
v 0.3 0.3 0.6
v 0.4 0.3 0.6
v 0.8 0.3 0.6
v 0.9 0.3 0.6
v -1.2 0.3 0.5
v -1.1 0.3 0.5
v -0.3 0.3 0.5
v -0.2 0.3 0.5
v 1.1 0.3 0.5
v 1.2 0.3 0.5
v -0.8 0.3 0.4
v -0.7 0.3 0.4
v 0 0.3 0.4
v 0.1 0.3 0.4
v 0.9 0.3 0.4
v 1 0.3 0.4
v 1.2 0.3 0.4
v 1.3 0.3 0.4
v -0.9 0.3 0.3
v -0.8 0.3 0.3
v -0.5 0.3 0.3
v 0.5 0.3 0.3
v 0.8 0.3 0.3
v 0.9 0.3 0.3
v -0.9 0.3 0.2
v -0.8 0.3 0.2
v -0.5 0.3 0.2
v -0.2 0.3 0.2
v -0.1 0.3 0.2
v 0.5 0.3 0.2
v -1.2 0.3 0.1
v -1.1 0.3 0.1
v -0.9 0.3 0.1
v -0.8 0.3 0.1
v -0.4 0.3 0.1
v -0.3 0.3 0.1
v -0.4 0.3 0
v -0.3 0.3 0
v -0.2 0.3 0
v -0.1 0.3 0
v -0.9 0.3 -0.1
v -0.8 0.3 -0.1
v -0.1 0.3 -0.1
v 0.2 0.3 -0.1
v 0.3 0.3 -0.1
v 0.4 0.3 -0.1
v 0.7 0.3 -0.1
v 0.8 0.3 -0.1
v -1.3 0.3 -0.2
v -1.2 0.3 -0.2
v -1 0.3 -0.2
v -0.9 0.3 -0.2
v 0 0.3 -0.2
v 0.2 0.3 -0.2
v -0.9 0.3 -0.3
v -0.8 0.3 -0.3
v -0.4 0.3 -0.3
v -0.3 0.3 -0.3
v 1.1 0.3 -0.3
v 1.2 0.3 -0.3
v 1.3 0.3 -0.3
v 1.4 0.3 -0.3
v -1.3 0.3 -0.4
v -1.2 0.3 -0.4
v 0.9 0.3 -0.4
v 1 0.3 -0.4
v 1.2 0.3 -0.4
v 1.3 0.3 -0.4
v 1.4 0.3 -0.4
v -1.3 0.3 -0.5
v -1.2 0.3 -0.5
v -1 0.3 -0.5
v -0.9 0.3 -0.5
v -0.8 0.3 -0.5
v 0.7 0.3 -0.5
v 0.8 0.3 -0.5
v 0.3 0.3 -0.6
v 0.4 0.3 -0.6
v 0.6 0.3 -0.6
v 1.2 0.3 -0.6
v 1.3 0.3 -0.6
v 1.4 0.3 -0.6
v 0.6 0.3 -0.7
v 1.4 0.3 -0.7
v 1 0.3 -0.8
v 1.1 0.3 -0.8
v -1.3 0.3 -0.9
v -1.2 0.3 -0.9
v -0.9 0.3 -0.9
v -0.8 0.3 -0.9
v 0.9 0.3 -0.9
v 1 0.3 -0.9
v -1.4 0.3 -1
v -0.6 0.3 -1
v 0.2 0.3 -1
v 0.3 0.3 -1
v 0.7 0.3 -1
v 0.8 0.3 -1
v 1 0.3 -1
v 1.1 0.3 -1
v 1.2 0.3 -1
v 1.3 0.3 -1
v -1.4 0.3 -1.1
v -0.6 0.3 -1.1
v 0.2 0.3 -1.1
v 0.3 0.3 -1.1
v 0.7 0.3 -1.1
v 0.8 0.3 -1.1
v -0.9 0.3 -1.2
v -0.8 0.3 -1.2
v 0.3 0.3 -1.2
v 0.4 0.3 -1.2
v 0.9 0.3 -1.2
v 1 0.3 -1.2
v 1.1 0.3 -1.2
v -1.2 0.3 -1.3
v -1.1 0.3 -1.3
v -0.4 0.3 -1.3
v -0.3 0.3 -1.3
v 0.6 0.3 -1.3
v 0.7 0.3 -1.3
v 0.6 0.3 -1.4
v 0.7 0.3 -1.4
v 1 0.3 -1.4
v 1.1 0.3 -1.4
v 1.2 0.3 -1.4
v 1.3 0.3 -1.4
v -1.5 0.3 -1.5
v -1.4 0.3 -1.5
v -1.2 0.3 -1.5
v -1.1 0.3 -1.5
v -0.9 0.3 -1.5
v -0.8 0.3 -1.5
v -0.6 0.3 -1.5
v -0.5 0.3 -1.5
v -0.1 0.3 -1.5
v 0 0.3 -1.5
v 0.3 0.3 -1.5
v 0.4 0.3 -1.5
v 0.5 0.3 -1.5
v 0.6 0.3 -1.5
v 1.4 0.3 -1.5
v 1.5 0.3 -1.5

# faces
f 3/3/1 2/3/1 1/3/1
f 4/3/1 2/3/1 3/3/1
f 5/3/2 6/3/2 7/3/2
f 7/3/2 6/3/2 8/3/2
f 11/3/3 10/3/3 9/3/3
f 12/3/3 10/3/3 11/3/3
f 13/2/3 12/2/3 11/2/3
f 14/2/3 12/2/3 13/2/3
f 15/2/3 13/2/3 11/2/3
f 15/1/3 14/1/3 13/1/3
f 16/1/3 14/1/3 15/1/3
f 17/2/3 15/2/3 11/2/3
f 17/2/3 16/2/3 15/2/3
f 18/2/3 16/2/3 17/2/3
f 19/2/3 17/2/3 11/2/3
f 19/1/3 18/1/3 17/1/3
f 20/1/3 18/1/3 19/1/3
f 21/2/3 19/2/3 11/2/3
f 21/2/3 20/2/3 19/2/3
f 22/2/3 20/2/3 21/2/3
f 23/2/3 21/2/3 11/2/3
f 23/3/3 22/3/3 21/3/3
f 24/3/3 22/3/3 23/3/3
f 25/2/3 23/2/3 11/2/3
f 25/2/3 24/2/3 23/2/3
f 26/2/3 24/2/3 25/2/3
f 27/2/3 25/2/3 11/2/3
f 27/1/3 26/1/3 25/1/3
f 28/1/3 26/1/3 27/1/3
f 29/2/3 27/2/3 11/2/3
f 29/2/3 28/2/3 27/2/3
f 30/2/3 28/2/3 29/2/3
f 31/2/3 29/2/3 11/2/3
f 31/3/3 30/3/3 29/3/3
f 32/3/3 30/3/3 31/3/3
f 33/2/3 31/2/3 11/2/3
f 33/2/3 32/2/3 31/2/3
f 34/2/3 32/2/3 33/2/3
f 35/3/3 34/3/3 33/3/3
f 36/3/3 34/3/3 35/3/3
f 37/3/4 38/3/4 39/3/4
f 39/3/4 38/3/4 40/3/4
f 39/2/4 40/2/4 41/2/4
f 41/2/4 40/2/4 42/2/4
f 39/2/4 41/2/4 43/2/4
f 41/1/4 42/1/4 43/1/4
f 43/1/4 42/1/4 44/1/4
f 39/2/4 43/2/4 45/2/4
f 43/2/4 44/2/4 45/2/4
f 45/2/4 44/2/4 46/2/4
f 39/2/4 45/2/4 47/2/4
f 45/1/4 46/1/4 47/1/4
f 47/1/4 46/1/4 48/1/4
f 39/2/4 47/2/4 49/2/4
f 47/2/4 48/2/4 49/2/4
f 49/2/4 48/2/4 50/2/4
f 49/3/4 50/3/4 51/3/4
f 51/3/4 50/3/4 52/3/4
f 51/2/4 52/2/4 53/2/4
f 53/2/4 52/2/4 54/2/4
f 51/2/4 53/2/4 55/2/4
f 53/1/4 54/1/4 55/1/4
f 55/1/4 54/1/4 56/1/4
f 55/2/4 56/2/4 57/2/4
f 57/2/4 56/2/4 58/2/4
f 55/2/4 57/2/4 59/2/4
f 57/1/4 58/1/4 59/1/4
f 59/1/4 58/1/4 60/1/4
f 51/2/4 55/2/4 61/2/4
f 55/2/4 59/2/4 61/2/4
f 59/2/4 60/2/4 61/2/4
f 61/2/4 60/2/4 62/2/4
f 61/3/4 62/3/4 63/3/4
f 63/3/4 62/3/4 64/3/4
f 63/2/4 64/2/4 65/2/4
f 65/2/4 64/2/4 66/2/4
f 65/3/4 66/3/4 67/3/4
f 67/3/4 66/3/4 68/3/4
f 73/2/5 71/2/5 70/2/5
f 74/2/5 71/2/5 73/2/5
f 75/2/5 73/2/5 70/2/5
f 75/3/5 74/3/5 73/3/5
f 76/2/5 71/2/5 74/2/5
f 76/3/5 74/3/5 75/3/5
f 77/2/5 76/2/5 75/2/5
f 77/2/5 71/2/5 76/2/5
f 78/2/5 71/2/5 77/2/5
f 79/2/5 71/2/5 78/2/5
f 80/2/5 71/2/5 79/2/5
f 81/3/5 70/3/5 69/3/5
f 82/2/5 75/2/5 70/2/5
f 82/3/5 70/3/5 81/3/5
f 82/2/5 77/2/5 75/2/5
f 83/3/5 78/3/5 77/3/5
f 83/2/5 77/2/5 82/2/5
f 84/2/5 79/2/5 78/2/5
f 84/3/5 78/3/5 83/3/5
f 85/3/5 80/3/5 79/3/5
f 85/2/5 79/2/5 84/2/5
f 86/2/5 71/2/5 80/2/5
f 86/3/5 80/3/5 85/3/5
f 87/3/5 72/3/5 71/3/5
f 87/2/5 71/2/5 86/2/5
f 88/3/5 72/3/5 87/3/5
f 96/2/6 97/2/6 103/2/6
f 103/2/6 97/2/6 104/2/6
f 99/3/6 100/3/6 105/3/6
f 100/2/6 101/2/6 105/2/6
f 101/3/6 102/3/6 106/3/6
f 105/2/6 101/2/6 106/2/6
f 89/3/6 90/3/6 107/3/6
f 90/2/6 91/2/6 107/2/6
f 107/2/6 91/2/6 108/2/6
f 92/2/6 93/2/6 109/2/6
f 93/1/6 94/1/6 109/1/6
f 94/2/6 95/2/6 110/2/6
f 109/1/6 94/1/6 110/1/6
f 105/3/6 106/3/6 111/3/6
f 99/3/6 105/3/6 111/3/6
f 106/3/6 102/3/6 112/3/6
f 111/3/6 106/3/6 112/3/6
f 107/1/6 108/1/6 113/1/6
f 89/3/6 107/3/6 113/3/6
f 108/2/6 91/2/6 114/2/6
f 113/1/6 108/1/6 114/1/6
f 91/1/6 92/1/6 115/1/6
f 114/2/6 91/2/6 115/2/6
f 92/2/6 109/2/6 116/2/6
f 115/1/6 92/1/6 116/1/6
f 109/2/6 110/2/6 116/2/6
f 111/2/6 112/2/6 117/2/6
f 117/2/6 112/2/6 118/2/6
f 118/2/6 112/2/6 119/2/6
f 112/3/6 102/3/6 120/3/6
f 119/2/6 112/2/6 120/2/6
f 113/2/6 114/2/6 121/2/6
f 89/3/6 113/3/6 121/3/6
f 114/2/6 115/2/6 121/2/6
f 115/2/6 116/2/6 121/2/6
f 110/2/6 95/2/6 122/2/6
f 121/2/6 116/2/6 122/2/6
f 95/3/6 96/3/6 122/3/6
f 116/2/6 110/2/6 122/2/6
f 118/2/6 119/2/6 123/2/6
f 123/2/6 119/2/6 124/2/6
f 124/2/6 119/2/6 125/2/6
f 119/1/6 120/1/6 126/1/6
f 125/2/6 119/2/6 126/2/6
f 89/3/6 121/3/6 127/3/6
f 121/3/6 122/3/6 127/3/6
f 122/3/6 96/3/6 128/3/6
f 127/3/6 122/3/6 128/3/6
f 117/1/6 118/1/6 129/1/6
f 111/2/6 117/2/6 129/2/6
f 118/2/6 123/2/6 130/2/6
f 129/1/6 118/1/6 130/1/6
f 126/1/6 120/1/6 131/1/6
f 125/1/6 126/1/6 131/1/6
f 120/3/6 102/3/6 132/3/6
f 131/1/6 120/1/6 132/1/6
f 127/2/6 128/2/6 133/2/6
f 133/2/6 128/2/6 134/2/6
f 134/2/6 128/2/6 135/2/6
f 135/2/6 128/2/6 136/2/6
f 96/2/6 103/2/6 137/2/6
f 137/2/6 103/2/6 138/2/6
f 130/2/6 123/2/6 139/2/6
f 129/2/6 130/2/6 139/2/6
f 123/1/6 124/1/6 139/1/6
f 124/2/6 125/2/6 140/2/6
f 139/1/6 124/1/6 140/1/6
f 127/2/6 133/2/6 141/2/6
f 133/1/6 134/1/6 141/1/6
f 134/2/6 135/2/6 142/2/6
f 141/1/6 134/1/6 142/1/6
f 136/2/6 128/2/6 143/2/6
f 135/1/6 136/1/6 143/1/6
f 143/2/6 128/2/6 144/2/6
f 97/1/6 98/1/6 145/1/6
f 104/2/6 97/2/6 145/2/6
f 98/2/6 99/2/6 146/2/6
f 145/1/6 98/1/6 146/1/6
f 129/2/6 139/2/6 147/2/6
f 139/2/6 140/2/6 147/2/6
f 147/2/6 140/2/6 148/2/6
f 142/2/6 135/2/6 149/2/6
f 141/2/6 142/2/6 149/2/6
f 149/2/6 135/2/6 150/2/6
f 137/1/6 138/1/6 151/1/6
f 96/2/6 137/2/6 151/2/6
f 138/2/6 103/2/6 152/2/6
f 151/1/6 138/1/6 152/1/6
f 148/2/6 140/2/6 153/2/6
f 140/2/6 125/2/6 153/2/6
f 125/1/6 131/1/6 154/1/6
f 153/2/6 125/2/6 154/2/6
f 143/1/6 144/1/6 155/1/6
f 135/1/6 143/1/6 155/1/6
f 144/2/6 128/2/6 156/2/6
f 155/1/6 144/1/6 156/1/6
f 152/2/6 103/2/6 157/2/6
f 103/1/6 104/1/6 157/1/6
f 151/2/6 152/2/6 157/2/6
f 104/2/6 145/2/6 158/2/6
f 157/1/6 104/1/6 158/1/6
f 145/2/6 146/2/6 158/2/6
f 148/2/6 153/2/6 159/2/6
f 147/1/6 148/1/6 159/1/6
f 159/2/6 153/2/6 160/2/6
f 154/1/6 131/1/6 161/1/6
f 153/1/6 154/1/6 161/1/6
f 131/2/6 132/2/6 162/2/6
f 161/1/6 131/1/6 162/1/6
f 135/1/6 155/1/6 163/1/6
f 150/2/6 135/2/6 163/2/6
f 155/2/6 156/2/6 164/2/6
f 163/1/6 155/1/6 164/1/6
f 96/2/6 151/2/6 165/2/6
f 128/3/6 96/3/6 165/3/6
f 151/2/6 157/2/6 165/2/6
f 157/2/6 158/2/6 165/2/6
f 99/3/6 111/3/6 166/3/6
f 165/2/6 158/2/6 166/2/6
f 158/2/6 146/2/6 166/2/6
f 146/2/6 99/2/6 166/2/6
f 159/1/6 160/1/6 167/1/6
f 147/1/6 159/1/6 167/1/6
f 129/2/6 147/2/6 167/2/6
f 167/1/6 160/1/6 168/1/6
f 163/2/6 164/2/6 169/2/6
f 150/2/6 163/2/6 169/2/6
f 164/2/6 156/2/6 170/2/6
f 169/2/6 164/2/6 170/2/6
f 128/3/6 165/3/6 171/3/6
f 165/3/6 166/3/6 171/3/6
f 171/3/6 166/3/6 172/3/6
f 172/3/6 166/3/6 173/3/6
f 166/3/6 111/3/6 174/3/6
f 173/3/6 166/3/6 174/3/6
f 149/1/6 150/1/6 175/1/6
f 141/2/6 149/2/6 175/2/6
f 150/2/6 169/2/6 176/2/6
f 175/1/6 150/1/6 176/1/6
f 169/1/6 170/1/6 177/1/6
f 176/2/6 169/2/6 177/2/6
f 170/2/6 156/2/6 178/2/6
f 177/1/6 170/1/6 178/1/6
f 171/2/6 172/2/6 179/2/6
f 179/2/6 172/2/6 180/2/6
f 171/2/6 179/2/6 181/2/6
f 179/1/6 180/1/6 181/1/6
f 180/2/6 172/2/6 182/2/6
f 181/1/6 180/1/6 182/1/6
f 172/1/6 173/1/6 183/1/6
f 182/2/6 172/2/6 183/2/6
f 173/2/6 174/2/6 184/2/6
f 183/1/6 173/1/6 184/1/6
f 176/2/6 177/2/6 185/2/6
f 175/2/6 176/2/6 185/2/6
f 177/2/6 178/2/6 185/2/6
f 178/2/6 156/2/6 186/2/6
f 185/2/6 178/2/6 186/2/6
f 184/2/6 174/2/6 187/2/6
f 181/2/6 182/2/6 187/2/6
f 183/2/6 184/2/6 187/2/6
f 182/2/6 183/2/6 187/2/6
f 187/2/6 174/2/6 188/2/6
f 188/2/6 174/2/6 189/2/6
f 189/2/6 174/2/6 190/2/6
f 167/2/6 168/2/6 191/2/6
f 111/2/6 129/2/6 191/2/6
f 129/2/6 167/2/6 191/2/6
f 191/2/6 168/2/6 192/2/6
f 141/2/6 175/2/6 193/2/6
f 127/2/6 141/2/6 193/2/6
f 175/2/6 185/2/6 193/2/6
f 193/2/6 185/2/6 194/2/6
f 194/2/6 185/2/6 195/2/6
f 185/1/6 186/1/6 196/1/6
f 195/2/6 185/2/6 196/2/6
f 187/1/6 188/1/6 197/1/6
f 188/2/6 189/2/6 198/2/6
f 197/1/6 188/1/6 198/1/6
f 196/1/6 186/1/6 199/1/6
f 195/1/6 196/1/6 199/1/6
f 186/2/6 156/2/6 200/2/6
f 199/1/6 186/1/6 200/1/6
f 171/2/6 181/2/6 201/2/6
f 181/2/6 187/2/6 201/2/6
f 201/2/6 187/2/6 202/2/6
f 160/2/6 153/2/6 203/2/6
f 153/1/6 161/1/6 203/1/6
f 161/2/6 162/2/6 204/2/6
f 203/1/6 161/1/6 204/1/6
f 162/2/6 132/2/6 205/2/6
f 204/2/6 162/2/6 205/2/6
f 132/3/6 102/3/6 206/3/6
f 205/2/6 132/2/6 206/2/6
f 127/2/6 193/2/6 207/2/6
f 193/1/6 194/1/6 207/1/6
f 194/2/6 195/2/6 208/2/6
f 207/1/6 194/1/6 208/1/6
f 192/2/6 168/2/6 209/2/6
f 168/1/6 160/1/6 209/1/6
f 204/2/6 205/2/6 210/2/6
f 209/1/6 160/1/6 210/1/6
f 203/2/6 204/2/6 210/2/6
f 160/2/6 203/2/6 210/2/6
f 210/2/6 205/2/6 211/2/6
f 205/1/6 206/1/6 212/1/6
f 211/2/6 205/2/6 212/2/6
f 206/3/6 102/3/6 213/3/6
f 212/1/6 206/1/6 213/1/6
f 127/2/6 207/2/6 214/2/6
f 207/2/6 208/2/6 214/2/6
f 208/2/6 195/2/6 215/2/6
f 214/2/6 208/2/6 215/2/6
f 195/1/6 199/1/6 216/1/6
f 215/2/6 195/2/6 216/2/6
f 199/2/6 200/2/6 217/2/6
f 216/1/6 199/1/6 217/1/6
f 200/2/6 156/2/6 218/2/6
f 217/2/6 200/2/6 218/2/6
f 191/1/6 192/1/6 219/1/6
f 111/2/6 191/2/6 219/2/6
f 192/2/6 209/2/6 220/2/6
f 219/1/6 192/1/6 220/1/6
f 210/2/6 211/2/6 220/2/6
f 209/2/6 210/2/6 220/2/6
f 197/2/6 198/2/6 221/2/6
f 189/1/6 190/1/6 221/1/6
f 198/2/6 189/2/6 221/2/6
f 190/2/6 174/2/6 222/2/6
f 221/1/6 190/1/6 222/1/6
f 111/2/6 219/2/6 223/2/6
f 219/2/6 220/2/6 223/2/6
f 174/3/6 111/3/6 223/3/6
f 220/2/6 211/2/6 224/2/6
f 223/2/6 220/2/6 224/2/6
f 211/1/6 212/1/6 224/1/6
f 212/2/6 213/2/6 225/2/6
f 224/1/6 212/1/6 225/1/6
f 213/3/6 102/3/6 226/3/6
f 225/2/6 213/2/6 226/2/6
f 224/3/6 225/3/6 227/3/6
f 223/3/6 224/3/6 227/3/6
f 225/3/6 226/3/6 227/3/6
f 174/3/6 223/3/6 227/3/6
f 226/3/6 102/3/6 228/3/6
f 227/3/6 226/3/6 228/3/6
f 227/2/6 228/2/6 229/2/6
f 229/2/6 228/2/6 230/2/6
f 214/1/6 215/1/6 231/1/6
f 127/2/6 214/2/6 231/2/6
f 216/2/6 217/2/6 232/2/6
f 231/1/6 215/1/6 232/1/6
f 215/2/6 216/2/6 232/2/6
f 217/1/6 218/1/6 233/1/6
f 232/2/6 217/2/6 233/2/6
f 218/2/6 156/2/6 234/2/6
f 233/1/6 218/1/6 234/1/6
f 227/2/6 229/2/6 235/2/6
f 229/1/6 230/1/6 236/1/6
f 235/2/6 229/2/6 236/2/6
f 232/2/6 233/2/6 237/2/6
f 89/3/6 127/3/6 237/3/6
f 127/2/6 231/2/6 237/2/6
f 233/2/6 234/2/6 237/2/6
f 231/2/6 232/2/6 237/2/6
f 128/3/6 171/3/6 238/3/6
f 237/2/6 234/2/6 238/2/6
f 156/2/6 128/2/6 238/2/6
f 234/2/6 156/2/6 238/2/6
f 197/2/6 221/2/6 239/2/6
f 221/2/6 222/2/6 239/2/6
f 239/2/6 222/2/6 240/2/6
f 227/2/6 235/2/6 241/2/6
f 241/2/6 235/2/6 242/2/6
f 236/1/6 230/1/6 243/1/6
f 235/1/6 236/1/6 243/1/6
f 230/2/6 228/2/6 244/2/6
f 243/1/6 230/1/6 244/1/6
f 244/2/6 228/2/6 245/2/6
f 245/2/6 228/2/6 246/2/6
f 89/3/6 237/3/6 247/3/6
f 237/3/6 238/3/6 247/3/6
f 238/3/6 171/3/6 248/3/6
f 247/3/6 238/3/6 248/3/6
f 197/2/6 239/2/6 249/2/6
f 239/1/6 240/1/6 249/1/6
f 240/2/6 222/2/6 250/2/6
f 249/1/6 240/1/6 250/1/6
f 241/1/6 242/1/6 251/1/6
f 227/2/6 241/2/6 251/2/6
f 242/2/6 235/2/6 252/2/6
f 251/1/6 242/1/6 252/1/6
f 247/2/6 248/2/6 253/2/6
f 253/2/6 248/2/6 254/2/6
f 250/2/6 222/2/6 255/2/6
f 249/2/6 250/2/6 255/2/6
f 222/2/6 174/2/6 256/2/6
f 255/2/6 222/2/6 256/2/6
f 235/1/6 243/1/6 257/1/6
f 252/2/6 235/2/6 257/2/6
f 251/2/6 252/2/6 257/2/6
f 243/2/6 244/2/6 258/2/6
f 257/1/6 243/1/6 258/1/6
f 244/2/6 245/2/6 258/2/6
f 258/2/6 245/2/6 259/2/6
f 247/2/6 253/2/6 260/2/6
f 260/2/6 253/2/6 261/2/6
f 201/1/6 202/1/6 262/1/6
f 171/2/6 201/2/6 262/2/6
f 202/2/6 187/2/6 263/2/6
f 262/1/6 202/1/6 263/1/6
f 174/3/6 227/3/6 264/3/6
f 227/2/6 251/2/6 264/2/6
f 251/2/6 257/2/6 264/2/6
f 257/2/6 258/2/6 264/2/6
f 264/2/6 258/2/6 265/2/6
f 174/3/6 264/3/6 266/3/6
f 264/1/6 265/1/6 266/1/6
f 265/2/6 258/2/6 267/2/6
f 266/1/6 265/1/6 267/1/6
f 258/1/6 259/1/6 268/1/6
f 267/2/6 258/2/6 268/2/6
f 259/2/6 245/2/6 269/2/6
f 268/1/6 259/1/6 269/1/6
f 245/1/6 246/1/6 270/1/6
f 269/2/6 245/2/6 270/2/6
f 246/2/6 228/2/6 271/2/6
f 270/1/6 246/1/6 271/1/6
f 89/3/6 247/3/6 272/3/6
f 247/2/6 260/2/6 273/2/6
f 272/3/6 247/3/6 273/3/6
f 260/1/6 261/1/6 274/1/6
f 273/2/6 260/2/6 274/2/6
f 261/2/6 253/2/6 275/2/6
f 274/1/6 261/1/6 275/1/6
f 253/1/6 254/1/6 276/1/6
f 275/2/6 253/2/6 276/2/6
f 254/2/6 248/2/6 277/2/6
f 276/1/6 254/1/6 277/1/6
f 248/3/6 171/3/6 278/3/6
f 277/2/6 248/2/6 278/2/6
f 262/2/6 263/2/6 279/2/6
f 278/3/6 171/3/6 279/3/6
f 171/2/6 262/2/6 279/2/6
f 263/2/6 187/2/6 280/2/6
f 279/2/6 263/2/6 280/2/6
f 187/1/6 197/1/6 280/1/6
f 197/2/6 249/2/6 281/2/6
f 280/1/6 197/1/6 281/1/6
f 249/2/6 255/2/6 281/2/6
f 255/1/6 256/1/6 282/1/6
f 281/2/6 255/2/6 282/2/6
f 256/2/6 174/2/6 283/2/6
f 282/1/6 256/1/6 283/1/6
f 174/3/6 266/3/6 284/3/6
f 283/2/6 174/2/6 284/2/6
f 269/2/6 270/2/6 285/2/6
f 284/3/6 266/3/6 285/3/6
f 266/2/6 267/2/6 285/2/6
f 267/2/6 268/2/6 285/2/6
f 270/2/6 271/2/6 285/2/6
f 268/2/6 269/2/6 285/2/6
f 228/3/6 102/3/6 286/3/6
f 285/2/6 271/2/6 286/2/6
f 271/2/6 228/2/6 286/2/6
f 286/3/6 102/3/6 287/3/6
